<svg xmlns="http://www.w3.org/2000/svg" xmlns:xlink="http://www.w3.org/1999/xlink" width="21" height="26" viewBox="0 0 21 26">
    <defs>
        <path id="prefix__a" d="M0 0.039L11.349 0.039 11.349 19.348 0 19.348z"/>
    </defs>
    <g fill="none" fill-rule="evenodd">
        <g transform="rotate(-21 15.396 .209) translate(.708 .575)">
            <mask id="prefix__b" fill="#fff">
                <use xlink:href="#prefix__a"/>
            </mask>
            <path fill="#000" d="M10.491 16.996c0 .817-.655 1.482-1.461 1.482H2.319c-.806 0-1.462-.665-1.462-1.482V6.004c0-.378.142-.739.399-1.017L4.61 1.374c.279-.3.656-.465 1.063-.465.407 0 .785.165 1.063.465l3.356 3.613c.257.274.398.635.398 1.017v10.992zM10.72 4.39L7.363.778C6.92.3 6.32.04 5.674.04S4.431.3 3.986.78L.63 4.39C.223 4.831 0 5.4 0 6.004v10.992c0 1.295 1.041 2.352 2.319 2.352H9.03c1.277 0 2.319-1.057 2.319-2.352V6.004c0-.604-.228-1.174-.63-1.613z" mask="url(#prefix__b)"/>
        </g>
        <path fill="#000" d="M6.92 5.145c.38 0 .692.311.692.692 0 .38-.312.69-.692.69-.38 0-.691-.31-.691-.69 0-.38.311-.692.691-.692m0 2.192c.825 0 1.5-.672 1.5-1.5 0-.83-.67-1.5-1.5-1.5-.829 0-1.5.67-1.5 1.5 0 .828.676 1.5 1.5 1.5M8.661 10.705c-.156-.156-.408-.156-.564 0l-4.201 4.203c-.156.156-.156.408 0 .564.08.08.18.116.284.116.104 0 .204-.04.284-.116l4.201-4.202c.152-.156.152-.408-.004-.565M4.294 10.966c.129-.128.303-.195.474-.195.17 0 .344.067.473.195.124.125.195.295.195.474 0 .178-.07.348-.195.473-.125.124-.295.195-.473.195-.179 0-.35-.07-.474-.195-.261-.258-.261-.685 0-.947m1.536 1.536c.282-.282.44-.66.44-1.062 0-.403-.158-.777-.44-1.063-.585-.585-1.536-.585-2.12 0-.586.585-.586 1.536 0 2.121.281.282.66.44 1.062.44.398.004.776-.154 1.058-.436M9.194 15.57c-.26.26-.684.26-.945 0-.124-.125-.195-.295-.195-.473s.07-.348.195-.472c.125-.125.295-.195.473-.195s.348.07.472.195c.261.257.261.683 0 .944m-.472-1.972c-.402 0-.775.157-1.061.44-.282.281-.44.658-.44 1.06s.158.775.44 1.06c.29.29.675.44 1.06.44.386 0 .768-.145 1.062-.44.584-.583.584-1.532 0-2.117-.286-.286-.663-.443-1.061-.443" transform="rotate(-21 15.396 .209)"/>
    </g>
</svg>
